<?xml version="1.0" encoding="UTF-8"?>
<svg id="Layer_1" xmlns="http://www.w3.org/2000/svg" version="1.1" viewBox="0 0 192 192">
  <!-- Generator: Adobe Illustrator 30.3.0, SVG Export Plug-In . SVG Version: 2.1.3 Build 182)  -->
  <defs>
    <style>
      .st0 {
        fill: #262324;
      }

      .st1 {
        fill: #63ea86;
      }

      .st2 {
        fill: #66c1ff;
      }

      .st3 {
        fill: #ff4e4e;
      }

      .st4 {
        fill: #f66;
      }

      .st5 {
        fill: #68be60;
      }

      .st6 {
        fill: #231f20;
      }

      .st7 {
        fill: #70b3dd;
      }
    </style>
  </defs>
  <g>
    <path d="M171.68,0H20.32C9.1,0,0,9.1,0,20.32v151.36c0,5.81,2.45,11.03,6.36,14.74L186.42,6.36c-3.7-3.91-8.93-6.36-14.74-6.36Z"/>
    <path class="st0" d="M6.36,186.42c3.64,3.45,8.55,5.58,13.96,5.58h151.36c11.22,0,20.32-9.1,20.32-20.32V20.32c0-5.41-2.13-10.32-5.58-13.96L6.36,186.42Z"/>
  </g>
  <g>
    <g>
      <path class="st1" d="M132.23,144.08c-.18,0-.37-.05-.53-.15l-9.08-5.39c-11.03,0-20.01-8.98-20.01-20.01s8.98-20.01,20.01-20.01,20.01,8.98,20.01,20.01c0,6.86-3.57,13.29-9.35,16.94v7.56c0,.38-.2.72-.53.91-.16.09-.34.14-.52.14Z"/>
      <path class="st6" d="M122.62,99.57c10.47,0,18.96,8.49,18.96,18.96,0,6.97-3.75,13.05-9.35,16.35v8.15l-9.32-5.54c-.1,0-.19,0-.29,0-10.47,0-18.96-8.49-18.96-18.96s8.49-18.96,18.96-18.96M122.62,97.48c-11.61,0-21.06,9.44-21.06,21.05s9.29,20.9,20.77,21.05l8.83,5.24c.33.2.7.29,1.07.29s.71-.09,1.03-.27c.65-.37,1.06-1.07,1.06-1.82v-6.99c5.8-3.89,9.35-10.49,9.35-17.5,0-11.61-9.44-21.05-21.05-21.05h0Z"/>
    </g>
    <path class="st5" d="M128.57,100.53c5.13,3.39,8.52,9.21,8.52,15.83,0,6.97-3.75,13.05-9.35,16.35v7.66l4.49,2.66v-8.15c5.6-3.3,9.35-9.38,9.35-16.35,0-8.39-5.45-15.51-13.01-18.01Z"/>
    <g>
      <path class="st2" d="M111.09,109.79c-.25,0-.5-.07-.72-.2,0,0-12.25-7.27-12.25-7.27-14.89,0-27.01-12.12-27.01-27.01s12.12-27.01,27.01-27.01,27.01,12.12,27.01,27.01c0,9.25-4.82,17.94-12.62,22.86v10.21c0,.51-.27.98-.71,1.23-.22.12-.46.18-.7.18Z"/>
      <path class="st6" d="M98.11,49.71c14.14,0,25.6,11.46,25.6,25.6,0,9.4-5.07,17.62-12.62,22.07v11l-12.59-7.48c-.13,0-.26,0-.39,0-14.14,0-25.6-11.46-25.6-25.6s11.46-25.6,25.6-25.6M98.11,46.89c-15.67,0-28.42,12.75-28.42,28.42s12.54,28.21,28.04,28.42l11.92,7.08c.44.26.94.4,1.44.4s.96-.12,1.4-.37c.88-.5,1.43-1.44,1.43-2.45v-9.44c7.82-5.25,12.62-14.15,12.62-23.63,0-15.67-12.75-28.42-28.42-28.42h0Z"/>
    </g>
    <path class="st7" d="M106.15,51c6.93,4.58,11.5,12.44,11.5,21.37,0,9.4-5.07,17.62-12.62,22.07v10.34l6.06,3.6v-11c7.55-4.45,12.62-12.67,12.62-22.07,0-11.33-7.36-20.94-17.56-24.31Z"/>
    <path d="M103.7,77.57h-13.16s-2.44,5.3-2.44,5.3c-.31.68-1.05,1-1.67.78-.72-.26-1.15-1.05-.79-1.84l10.27-22.19c.22-.47.8-.76,1.2-.76s.98.29,1.2.76l10.27,22.19c.35.75-.01,1.49-.64,1.8-.68.33-1.47.01-1.82-.73l-2.44-5.3ZM102.45,74.88l-5.33-11.48-5.32,11.5h10.65Z"/>
    <g>
      <g>
        <path class="st4" d="M61.31,144.39c-.23,0-.46-.06-.67-.18-.42-.24-.69-.69-.69-1.18v-9.81c-7.5-4.73-12.13-13.08-12.13-21.97,0-14.31,11.64-25.96,25.96-25.96s25.96,11.64,25.96,25.96-11.65,25.96-25.96,25.96c0,0-11.78,6.99-11.78,6.99-.21.13-.45.19-.69.19Z"/>
        <path class="st6" d="M73.78,86.65c13.59,0,24.6,11.01,24.6,24.6s-11.01,24.6-24.6,24.6c-.12,0-.25,0-.37,0l-12.1,7.19v-10.57c-7.26-4.28-12.13-12.18-12.13-21.21,0-13.59,11.01-24.6,24.6-24.6M73.78,83.93c-15.06,0-27.32,12.25-27.32,27.32,0,9.11,4.61,17.67,12.13,22.71v9.07c0,.98.52,1.88,1.37,2.36.42.24.88.36,1.34.36s.96-.13,1.39-.38l11.45-6.8c14.89-.2,26.95-12.38,26.95-27.31s-12.25-27.32-27.32-27.32h0Z"/>
      </g>
      <g>
        <path class="st3" d="M69.04,136.24c-.12,0-.25,0-.37,0l-7.36,4.37v2.43l12.08-7.18c-1.41.25-2.87.38-4.35.38Z"/>
        <path class="st3" d="M73.78,86.65c-1.5,0-2.97.13-4.4.39,13.43.18,24.26,11.12,24.26,24.6,0,12.09-8.72,22.14-20.21,24.21.12,0,.23,0,.35,0,13.59,0,24.6-11.01,24.6-24.6s-11.01-24.6-24.6-24.6Z"/>
      </g>
    </g>
    <path d="M70.07,118.6c-2.93,1.72-7.59,5.25-8.61,2.34-.25-.72.12-1.65.99-2.02,1.7-.73,3.28-1.56,4.98-2.62-1.77-2.18-4.69-5.24-2.55-6.42,2.23-1.23,2.85,2.07,5.23,4.27,2.46-2.34,4.33-4.67,5.76-7.76h-13.32c-1.05-.01-1.72-.86-1.68-1.76.05-1.02.85-1.6,1.88-1.6h7.34s.03-2.94.03-2.94c0-.8.82-1.48,1.51-1.55.84-.08,1.79.49,1.81,1.45l.06,3.04h8.7c.91,0,1.62.78,1.66,1.58.04.91-.63,1.77-1.64,1.77h-2.57c-1.64,3.77-3.86,7.03-6.97,9.99,2.05,1.52,4.28,2.54,6.7,3.28.87.26,1.3,1.26,1.08,2.01-.22.79-1.07,1.45-1.97,1.21-3.07-.82-5.82-2.23-8.44-4.27Z"/>
    <path d="M127.45,118.07h-4.28c.71,1.24.72,2.58.01,3.78-.64,1.08-1.82,1.7-3.2,1.76-2.34.09-4.54-.69-6.18-2.38-.34-.35-.37-.84-.05-1.2s.88-.37,1.25,0c1.36,1.39,3.22,2.02,5.14,1.86,1.04-.09,1.81-.81,1.86-1.85.05-.93-.73-1.95-1.8-1.96l-3.82-.03c-.46,0-.76-.45-.76-.8,0-.48.35-.87.87-.87l3.7-.02c1.07,0,1.83-.95,1.81-1.92-.02-1.01-.82-1.87-1.9-1.87h-3.61c-.52,0-.87-.4-.87-.84s.35-.85.87-.85l3.84.02c1.24,0,2.33.82,2.86,1.73.7,1.19.67,2.48,0,3.74l4.26.02v-3.81s-1.6,0-1.6,0c-.51,0-.92-.28-.97-.75-.06-.49.31-.94.86-.94h5.08c.48,0,.84.31.89.74s-.26.93-.78.93h-1.78s0,10.15,0,10.15c0,.52-.42.86-.86.86s-.83-.36-.83-.84v-4.66Z"/>
  </g>
</svg>